<svg xmlns="http://www.w3.org/2000/svg" viewBox="0 0 500 450" width="500" height="450">
  <rect width="100%" height="100%" fill="#f8f9fa"/>
  
  <rect x="175" y="20" width="150" height="40" rx="20" ry="20" fill="#cce5ff" stroke="#004085" stroke-width="2"/>
  <text x="250" y="45" font-family="sans-serif" font-size="14" text-anchor="middle" fill="#004085">Değişken: $islem</text>

  <line x1="250" y1="60" x2="250" y2="100" stroke="#6c757d" stroke-width="2"/>
  <polygon points="245,90 255,90 250,100" fill="#6c757d"/>

  <polygon points="250,100 350,140 250,180 150,140" fill="#ffeeba" stroke="#ffc107" stroke-width="2"/>
  <text x="250" y="145" font-family="sans-serif" font-size="14" text-anchor="middle" fill="#856404">case "$islem" in</text>

  <line x1="150" y1="140" x2="80" y2="140" stroke="#6c757d" stroke-width="2"/>
  <line x1="80" y1="140" x2="80" y2="200" stroke="#6c757d" stroke-width="2"/>
  <polygon points="75,190 85,190 80,200" fill="#6c757d"/>

  <line x1="250" y1="180" x2="250" y2="200" stroke="#6c757d" stroke-width="2"/>
  <polygon points="245,190 255,190 250,200" fill="#6c757d"/>

  <line x1="350" y1="140" x2="420" y2="140" stroke="#6c757d" stroke-width="2"/>
  <line x1="420" y1="140" x2="420" y2="200" stroke="#6c757d" stroke-width="2"/>
  <polygon points="415,190 425,190 420,200" fill="#6c757d"/>

  <rect x="30" y="200" width="100" height="40" fill="#d4edda" stroke="#28a745" stroke-width="2"/>
  <text x="80" y="225" font-family="sans-serif" font-size="14" text-anchor="middle" fill="#155724">baslat)</text>

  <rect x="200" y="200" width="100" height="40" fill="#d4edda" stroke="#28a745" stroke-width="2"/>
  <text x="250" y="225" font-family="sans-serif" font-size="14" text-anchor="middle" fill="#155724">durdur)</text>

  <rect x="370" y="200" width="100" height="40" fill="#f8d7da" stroke="#dc3545" stroke-width="2"/>
  <text x="420" y="225" font-family="sans-serif" font-size="14" text-anchor="middle" fill="#721c24">*)</text>

  <line x1="80" y1="240" x2="80" y2="270" stroke="#6c757d" stroke-width="2"/>
  <polygon points="75,260 85,260 80,270" fill="#6c757d"/>
  <rect x="30" y="270" width="100" height="40" rx="5" ry="5" fill="#e2e3e5" stroke="#383d41" stroke-width="1"/>
  <text x="80" y="295" font-family="sans-serif" font-size="12" text-anchor="middle" fill="#383d41">start komutu</text>

  <line x1="250" y1="240" x2="250" y2="270" stroke="#6c757d" stroke-width="2"/>
  <polygon points="245,260 255,260 250,270" fill="#6c757d"/>
  <rect x="200" y="270" width="100" height="40" rx="5" ry="5" fill="#e2e3e5" stroke="#383d41" stroke-width="1"/>
  <text x="250" y="295" font-family="sans-serif" font-size="12" text-anchor="middle" fill="#383d41">stop komutu</text>

  <line x1="420" y1="240" x2="420" y2="270" stroke="#6c757d" stroke-width="2"/>
  <polygon points="415,260 425,260 420,270" fill="#6c757d"/>
  <rect x="370" y="270" width="100" height="40" rx="5" ry="5" fill="#e2e3e5" stroke="#383d41" stroke-width="1"/>
  <text x="420" y="295" font-family="sans-serif" font-size="12" text-anchor="middle" fill="#383d41">Hata mesajı</text>

  <text x="80" y="335" font-family="sans-serif" font-weight="bold" font-size="16" text-anchor="middle" fill="#dc3545">;;</text>
  <text x="250" y="335" font-family="sans-serif" font-weight="bold" font-size="16" text-anchor="middle" fill="#dc3545">;;</text>
  <text x="420" y="335" font-family="sans-serif" font-weight="bold" font-size="16" text-anchor="middle" fill="#dc3545">;;</text>

  <line x1="80" y1="340" x2="80" y2="380" stroke="#6c757d" stroke-width="2"/>
  <line x1="80" y1="380" x2="250" y2="380" stroke="#6c757d" stroke-width="2"/>

  <line x1="420" y1="340" x2="420" y2="380" stroke="#6c757d" stroke-width="2"/>
  <line x1="420" y1="380" x2="250" y2="380" stroke="#6c757d" stroke-width="2"/>

  <line x1="250" y1="340" x2="250" y2="400" stroke="#6c757d" stroke-width="2"/>
  <polygon points="245,390 255,390 250,400" fill="#6c757d"/>

  <rect x="210" y="400" width="80" height="30" rx="15" ry="15" fill="#d6d8db" stroke="#383d41" stroke-width="2"/>
  <text x="250" y="420" font-family="sans-serif" font-size="14" text-anchor="middle" fill="#383d41">esac</text>
</svg>
